<?xml version="1.0" standalone="no"?>
<svg width="567.429" height="347.831" viewBox="0 0 567.429 347.831" xmlns="http://www.w3.org/2000/svg" shape-rendering="crispEdges">
<title>
/home/mtalha/Ph.D._work/Triplet_fit_sim/Triplet_fit_wOnlyHitUnc/Fit_hitUncOnly/Bad_Theta.svg
</title>
<desc>
Creator: ROOT Version 6.24/02
CreationDate: Wed Jan 25 09:21:29 2023</desc>
<defs>
</defs>
<rect x="0.5" y="0" width="566.929" height="347.331" fill="white"/>
<rect x="57.1929" y="34.7331" width="453.543" height="277.864" fill="white"/>
<rect x="57.1929" y="34.7331" width="453.543" height="277.864" fill="none" stroke="black"/>
<rect x="57.1929" y="34.7331" width="453.543" height="277.864" fill="white"/>
<rect x="57.1929" y="34.7331" width="453.543" height="277.864" fill="none" stroke="black"/>
<path d="M57.1929,312.598h 176.882v -37.8047h 4.53543v 37.8047h 45.3543v -264.633h 4.53543v 264.633h 222.236" fill="none" stroke="black"/>
<path d="M57.1929,312.598h 453.543" fill="none" stroke="black"/>
<path d="M57.1929,304.262v 8.33593" fill="none" stroke="black"/>
<path d="M68.5315,308.43v 4.16797" fill="none" stroke="black"/>
<path d="M79.8701,308.43v 4.16797" fill="none" stroke="black"/>
<path d="M91.2087,308.43v 4.16797" fill="none" stroke="black"/>
<path d="M102.547,304.262v 8.33593" fill="none" stroke="black"/>
<path d="M113.886,308.43v 4.16797" fill="none" stroke="black"/>
<path d="M125.224,308.43v 4.16797" fill="none" stroke="black"/>
<path d="M136.563,308.43v 4.16797" fill="none" stroke="black"/>
<path d="M147.902,304.262v 8.33593" fill="none" stroke="black"/>
<path d="M159.24,308.43v 4.16797" fill="none" stroke="black"/>
<path d="M170.579,308.43v 4.16797" fill="none" stroke="black"/>
<path d="M181.917,308.43v 4.16797" fill="none" stroke="black"/>
<path d="M193.256,304.262v 8.33593" fill="none" stroke="black"/>
<path d="M204.594,308.43v 4.16797" fill="none" stroke="black"/>
<path d="M215.933,308.43v 4.16797" fill="none" stroke="black"/>
<path d="M227.272,308.43v 4.16797" fill="none" stroke="black"/>
<path d="M238.61,304.262v 8.33593" fill="none" stroke="black"/>
<path d="M249.949,308.43v 4.16797" fill="none" stroke="black"/>
<path d="M261.287,308.43v 4.16797" fill="none" stroke="black"/>
<path d="M272.626,308.43v 4.16797" fill="none" stroke="black"/>
<path d="M283.965,304.262v 8.33593" fill="none" stroke="black"/>
<path d="M295.303,308.43v 4.16797" fill="none" stroke="black"/>
<path d="M306.642,308.43v 4.16797" fill="none" stroke="black"/>
<path d="M317.98,308.43v 4.16797" fill="none" stroke="black"/>
<path d="M329.319,304.262v 8.33593" fill="none" stroke="black"/>
<path d="M340.657,308.43v 4.16797" fill="none" stroke="black"/>
<path d="M351.996,308.43v 4.16797" fill="none" stroke="black"/>
<path d="M363.335,308.43v 4.16797" fill="none" stroke="black"/>
<path d="M374.673,304.262v 8.33593" fill="none" stroke="black"/>
<path d="M386.012,308.43v 4.16797" fill="none" stroke="black"/>
<path d="M397.35,308.43v 4.16797" fill="none" stroke="black"/>
<path d="M408.689,308.43v 4.16797" fill="none" stroke="black"/>
<path d="M420.028,304.262v 8.33593" fill="none" stroke="black"/>
<path d="M431.366,308.43v 4.16797" fill="none" stroke="black"/>
<path d="M442.705,308.43v 4.16797" fill="none" stroke="black"/>
<path d="M454.043,308.43v 4.16797" fill="none" stroke="black"/>
<path d="M465.382,304.262v 8.33593" fill="none" stroke="black"/>
<path d="M476.72,308.43v 4.16797" fill="none" stroke="black"/>
<path d="M488.059,308.43v 4.16797" fill="none" stroke="black"/>
<path d="M499.398,308.43v 4.16797" fill="none" stroke="black"/>
<path d="M510.736,304.262v 8.33593" fill="none" stroke="black"/>
<text xml:space="preserve" x="45.4894" y="325.308" fill="black" font-size="13.2461" font-family="Helvetica" font-weight="bold">0.001</text>
<text xml:space="preserve" x="38.2533" y="325.308" fill="black" font-size="13.2461" font-family="Times">&#8722;</text>
<text xml:space="preserve" x="86.0742" y="325.308" fill="black" font-size="13.2461" font-family="Helvetica" font-weight="bold">0.0008</text>
<text xml:space="preserve" x="79.1528" y="325.308" fill="black" font-size="13.2461" font-family="Times">&#8722;</text>
<text xml:space="preserve" x="131.693" y="325.308" fill="black" font-size="13.2461" font-family="Helvetica" font-weight="bold">0.0006</text>
<text xml:space="preserve" x="124.457" y="325.308" fill="black" font-size="13.2461" font-family="Times">&#8722;</text>
<text xml:space="preserve" x="176.997" y="325.308" fill="black" font-size="13.2461" font-family="Helvetica" font-weight="bold">0.0004</text>
<text xml:space="preserve" x="169.761" y="325.308" fill="black" font-size="13.2461" font-family="Times">&#8722;</text>
<text xml:space="preserve" x="222.301" y="325.308" fill="black" font-size="13.2461" font-family="Helvetica" font-weight="bold">0.0002</text>
<text xml:space="preserve" x="215.065" y="325.308" fill="black" font-size="13.2461" font-family="Times">&#8722;</text>
<text xml:space="preserve" x="280.504" y="325.308" fill="black" font-size="13.2461" font-family="Helvetica" font-weight="bold">0</text>
<text xml:space="preserve" x="309.763" y="325.308" fill="black" font-size="13.2461" font-family="Helvetica" font-weight="bold">0.0002</text>
<text xml:space="preserve" x="355.067" y="325.308" fill="black" font-size="13.2461" font-family="Helvetica" font-weight="bold">0.0004</text>
<text xml:space="preserve" x="400.371" y="325.308" fill="black" font-size="13.2461" font-family="Helvetica" font-weight="bold">0.0006</text>
<text xml:space="preserve" x="445.36" y="325.308" fill="black" font-size="13.2461" font-family="Helvetica" font-weight="bold">0.0008</text>
<text xml:space="preserve" x="495.383" y="325.308" fill="black" font-size="13.2461" font-family="Helvetica" font-weight="bold">0.001</text>
<text xml:space="preserve" x="457.315" y="338.207" fill="black" font-size="13.2461" font-family="Helvetica" font-weight="bold">_min_hit</text>
<text xml:space="preserve" x="447.877" y="338.207" fill="black" font-size="13.2461" font-family="Times">&#0920;</text>
<text xml:space="preserve" x="441.899" y="338.207" fill="black" font-size="13.2461" font-family="Helvetica" font-weight="bold"> </text>
<path d="M57.1929,312.598v -277.864" fill="none" stroke="black"/>
<path d="M70.7992,312.598h -13.6063" fill="none" stroke="black"/>
<path d="M63.9961,305.037h -6.80315" fill="none" stroke="black"/>
<path d="M63.9961,297.476h -6.80315" fill="none" stroke="black"/>
<path d="M63.9961,289.915h -6.80315" fill="none" stroke="black"/>
<path d="M63.9961,282.354h -6.80315" fill="none" stroke="black"/>
<path d="M70.7992,274.793h -13.6063" fill="none" stroke="black"/>
<path d="M63.9961,267.232h -6.80315" fill="none" stroke="black"/>
<path d="M63.9961,259.671h -6.80315" fill="none" stroke="black"/>
<path d="M63.9961,252.11h -6.80315" fill="none" stroke="black"/>
<path d="M63.9961,244.549h -6.80315" fill="none" stroke="black"/>
<path d="M70.7992,236.988h -13.6063" fill="none" stroke="black"/>
<path d="M63.9961,229.427h -6.80315" fill="none" stroke="black"/>
<path d="M63.9961,221.866h -6.80315" fill="none" stroke="black"/>
<path d="M63.9961,214.305h -6.80315" fill="none" stroke="black"/>
<path d="M63.9961,206.744h -6.80315" fill="none" stroke="black"/>
<path d="M70.7992,199.183h -13.6063" fill="none" stroke="black"/>
<path d="M63.9961,191.623h -6.80315" fill="none" stroke="black"/>
<path d="M63.9961,184.062h -6.80315" fill="none" stroke="black"/>
<path d="M63.9961,176.501h -6.80315" fill="none" stroke="black"/>
<path d="M63.9961,168.94h -6.80315" fill="none" stroke="black"/>
<path d="M70.7992,161.379h -13.6063" fill="none" stroke="black"/>
<path d="M63.9961,153.818h -6.80315" fill="none" stroke="black"/>
<path d="M63.9961,146.257h -6.80315" fill="none" stroke="black"/>
<path d="M63.9961,138.696h -6.80315" fill="none" stroke="black"/>
<path d="M63.9961,131.135h -6.80315" fill="none" stroke="black"/>
<path d="M70.7992,123.574h -13.6063" fill="none" stroke="black"/>
<path d="M63.9961,116.013h -6.80315" fill="none" stroke="black"/>
<path d="M63.9961,108.452h -6.80315" fill="none" stroke="black"/>
<path d="M63.9961,100.891h -6.80315" fill="none" stroke="black"/>
<path d="M63.9961,93.3303h -6.80315" fill="none" stroke="black"/>
<path d="M70.7992,85.7694h -13.6063" fill="none" stroke="black"/>
<path d="M63.9961,78.2085h -6.80315" fill="none" stroke="black"/>
<path d="M63.9961,70.6475h -6.80315" fill="none" stroke="black"/>
<path d="M63.9961,63.0866h -6.80315" fill="none" stroke="black"/>
<path d="M63.9961,55.5256h -6.80315" fill="none" stroke="black"/>
<path d="M70.7992,47.9647h -13.6063" fill="none" stroke="black"/>
<path d="M70.7992,47.9647h -13.6063" fill="none" stroke="black"/>
<path d="M63.9961,40.4038h -6.80315" fill="none" stroke="black"/>
<text xml:space="preserve" x="47.377" y="317.128" fill="black" font-size="13.2461" font-family="Helvetica" font-weight="bold">0</text>
<text xml:space="preserve" x="49.2647" y="279.689" fill="black" font-size="13.2461" font-family="Helvetica" font-weight="bold">1</text>
<text xml:space="preserve" x="47.377" y="241.936" fill="black" font-size="13.2461" font-family="Helvetica" font-weight="bold">2</text>
<text xml:space="preserve" x="47.377" y="203.868" fill="black" font-size="13.2461" font-family="Helvetica" font-weight="bold">3</text>
<text xml:space="preserve" x="47.377" y="166.115" fill="black" font-size="13.2461" font-family="Helvetica" font-weight="bold">4</text>
<text xml:space="preserve" x="47.377" y="128.047" fill="black" font-size="13.2461" font-family="Helvetica" font-weight="bold">5</text>
<text xml:space="preserve" x="47.377" y="90.2934" fill="black" font-size="13.2461" font-family="Helvetica" font-weight="bold">6</text>
<text xml:space="preserve" x="47.377" y="52.8547" fill="black" font-size="13.2461" font-family="Helvetica" font-weight="bold">7</text>
<g transform="rotate(-90,25.3543,81.4843)">
<text xml:space="preserve" x="25.3543" y="81.4843" fill="black" font-size="13.2461" font-family="Helvetica" font-weight="bold"> Entries</text>
</g>
<rect x="396.595" y="34.6072" width="113.26" height="55.6862" fill="white"/>
<path d="M396.595,90.2934h 113.26" fill="none" stroke="black"/>
<path d="M509.855,90.2934v -55.6862" fill="none" stroke="black"/>
<path d="M509.855,34.6072h -113.26" fill="none" stroke="black"/>
<path d="M396.595,34.6072v 55.6862" fill="none" stroke="black"/>
<text xml:space="preserve" x="446.304" y="45.9332" fill="black" font-size="12.2503" font-family="Helvetica" font-weight="bold">h5</text>
<path d="M396.595,48.5288h 113.26" fill="none" stroke="black"/>
<text xml:space="preserve" x="402.258" y="59.1469" fill="black" font-size="10.2771" font-family="Helvetica" font-weight="bold">Entries </text>
<text xml:space="preserve" x="473.675" y="59.1469" fill="black" font-size="10.2771" font-family="Helvetica" font-weight="bold"> 10000</text>
<text xml:space="preserve" x="402.258" y="72.9898" fill="black" font-size="10.2771" font-family="Helvetica" font-weight="bold">Mean  </text>
<text xml:space="preserve" x="493.181" y="72.9898" fill="black" font-size="10.2771" font-family="Helvetica" font-weight="bold">05</text>
<text xml:space="preserve" x="487.833" y="72.9898" fill="black" font-size="10.2771" font-family="Times">&#8722;</text>
<text xml:space="preserve" x="457.001" y="72.9898" fill="black" font-size="10.2771" font-family="Helvetica" font-weight="bold">2.451e</text>
<text xml:space="preserve" x="451.652" y="72.9898" fill="black" font-size="10.2771" font-family="Times">&#8722;</text>
<text xml:space="preserve" x="446.933" y="72.9898" fill="black" font-size="10.2771" font-family="Helvetica" font-weight="bold"> </text>
<text xml:space="preserve" x="402.258" y="86.8326" fill="black" font-size="10.2771" font-family="Helvetica" font-weight="bold">Std Dev   </text>
<text xml:space="preserve" x="493.181" y="86.8326" fill="black" font-size="10.2771" font-family="Helvetica" font-weight="bold">05</text>
<text xml:space="preserve" x="487.833" y="86.8326" fill="black" font-size="10.2771" font-family="Times">&#8722;</text>
<text xml:space="preserve" x="454.484" y="86.8326" fill="black" font-size="10.2771" font-family="Helvetica" font-weight="bold"> 7.078e</text>
<rect x="54.6131" y="10.3822" width="84.0012" height="18.8767" fill="white"/>
<path d="M54.6131,29.2588h 84.0012" fill="none" stroke="black"/>
<path d="M138.614,29.2588v -18.8767" fill="none" stroke="black"/>
<path d="M138.614,10.3822h -84.0012" fill="none" stroke="black"/>
<path d="M54.6131,10.3822v 18.8767" fill="none" stroke="black"/>
<text xml:space="preserve" x="62.1638" y="23.9104" fill="black" font-size="15.2203" font-family="Helvetica" font-weight="bold">Triplet Fit</text></svg>
