<?xml version="1.0" standalone="no"?>
<svg width="567.429" height="347.831" viewBox="0 0 567.429 347.831" xmlns="http://www.w3.org/2000/svg" shape-rendering="crispEdges">
<title>
/home/mtalha/Ph.D._work/Triplet_fit_sim/Triplet_fit_withoutHitUnc/Visualization_framework/sigmaP_Xeff.svg
</title>
<desc>
Creator: ROOT Version 6.24/02
CreationDate: Tue Jan 24 17:15:50 2023</desc>
<defs>
</defs>
<rect x="0.5" y="0" width="566.929" height="347.331" fill="white"/>
<rect x="57.1929" y="34.7331" width="453.543" height="277.864" fill="white"/>
<rect x="57.1929" y="34.7331" width="453.543" height="277.864" fill="none" stroke="black"/>
<rect x="57.1929" y="34.7331" width="453.543" height="277.864" fill="white"/>
<rect x="57.1929" y="34.7331" width="453.543" height="277.864" fill="none" stroke="black"/>
<path d="M57.1929,312.598h 453.543" fill="none" stroke="black"/>
<path d="M57.2663,308.43v 4.16797" fill="none" stroke="black"/>
<path d="M70.8009,308.43v 4.16797" fill="none" stroke="black"/>
<path d="M82.5251,308.43v 4.16797" fill="none" stroke="black"/>
<path d="M92.8666,308.43v 4.16797" fill="none" stroke="black"/>
<path d="M102.117,304.262v 8.33593" fill="none" stroke="black"/>
<text xml:space="preserve" x="109.041" y="324.364" fill="black" font-size="8.99738" font-family="Helvetica" font-weight="bold">1</text>
<text xml:space="preserve" x="104.636" y="324.364" fill="black" font-size="8.99738" font-family="Times">&#8722;</text>
<text xml:space="preserve" x="90.7934" y="330.027" fill="black" font-size="13.2461" font-family="Helvetica" font-weight="bold">10</text>
<path d="M162.977,308.43v 4.16797" fill="none" stroke="black"/>
<path d="M198.577,308.43v 4.16797" fill="none" stroke="black"/>
<path d="M223.836,308.43v 4.16797" fill="none" stroke="black"/>
<path d="M243.428,308.43v 4.16797" fill="none" stroke="black"/>
<path d="M259.436,308.43v 4.16797" fill="none" stroke="black"/>
<path d="M272.971,308.43v 4.16797" fill="none" stroke="black"/>
<path d="M284.695,308.43v 4.16797" fill="none" stroke="black"/>
<path d="M295.036,308.43v 4.16797" fill="none" stroke="black"/>
<path d="M304.287,304.262v 8.33593" fill="none" stroke="black"/>
<text xml:space="preserve" x="301.583" y="330.027" fill="black" font-size="13.2461" font-family="Helvetica" font-weight="bold">1</text>
<path d="M365.146,308.43v 4.16797" fill="none" stroke="black"/>
<path d="M400.746,308.43v 4.16797" fill="none" stroke="black"/>
<path d="M426.005,308.43v 4.16797" fill="none" stroke="black"/>
<path d="M445.597,308.43v 4.16797" fill="none" stroke="black"/>
<path d="M461.605,308.43v 4.16797" fill="none" stroke="black"/>
<path d="M475.14,308.43v 4.16797" fill="none" stroke="black"/>
<path d="M486.864,308.43v 4.16797" fill="none" stroke="black"/>
<path d="M497.206,308.43v 4.16797" fill="none" stroke="black"/>
<path d="M506.457,304.262v 8.33593" fill="none" stroke="black"/>
<text xml:space="preserve" x="499.473" y="330.027" fill="black" font-size="13.2461" font-family="Helvetica" font-weight="bold">10</text>
<text xml:space="preserve" x="500.102" y="341.353" fill="black" font-size="8.99738" font-family="Helvetica" font-weight="bold">eff</text>
<text xml:space="preserve" x="491.608" y="337.578" fill="black" font-size="13.2461" font-family="Helvetica" font-weight="bold">X</text>
<path d="M57.1929,312.598v -277.864" fill="none" stroke="black"/>
<path d="M70.7992,308.51h -13.6063" fill="none" stroke="black"/>
<path d="M63.9961,299.027h -6.80315" fill="none" stroke="black"/>
<path d="M63.9961,289.545h -6.80315" fill="none" stroke="black"/>
<path d="M63.9961,280.062h -6.80315" fill="none" stroke="black"/>
<path d="M63.9961,270.579h -6.80315" fill="none" stroke="black"/>
<path d="M70.7992,261.097h -13.6063" fill="none" stroke="black"/>
<path d="M63.9961,251.614h -6.80315" fill="none" stroke="black"/>
<path d="M63.9961,242.131h -6.80315" fill="none" stroke="black"/>
<path d="M63.9961,232.649h -6.80315" fill="none" stroke="black"/>
<path d="M63.9961,223.166h -6.80315" fill="none" stroke="black"/>
<path d="M70.7992,213.683h -13.6063" fill="none" stroke="black"/>
<path d="M63.9961,204.201h -6.80315" fill="none" stroke="black"/>
<path d="M63.9961,194.718h -6.80315" fill="none" stroke="black"/>
<path d="M63.9961,185.235h -6.80315" fill="none" stroke="black"/>
<path d="M63.9961,175.752h -6.80315" fill="none" stroke="black"/>
<path d="M70.7992,166.27h -13.6063" fill="none" stroke="black"/>
<path d="M63.9961,156.787h -6.80315" fill="none" stroke="black"/>
<path d="M63.9961,147.304h -6.80315" fill="none" stroke="black"/>
<path d="M63.9961,137.822h -6.80315" fill="none" stroke="black"/>
<path d="M63.9961,128.339h -6.80315" fill="none" stroke="black"/>
<path d="M70.7992,118.856h -13.6063" fill="none" stroke="black"/>
<path d="M63.9961,109.373h -6.80315" fill="none" stroke="black"/>
<path d="M63.9961,99.8908h -6.80315" fill="none" stroke="black"/>
<path d="M63.9961,90.4081h -6.80315" fill="none" stroke="black"/>
<path d="M63.9961,80.9254h -6.80315" fill="none" stroke="black"/>
<path d="M70.7992,71.4427h -13.6063" fill="none" stroke="black"/>
<path d="M70.7992,308.51h -13.6063" fill="none" stroke="black"/>
<path d="M70.7992,71.4427h -13.6063" fill="none" stroke="black"/>
<path d="M63.9961,61.96h -6.80315" fill="none" stroke="black"/>
<path d="M63.9961,52.4773h -6.80315" fill="none" stroke="black"/>
<path d="M63.9961,42.9946h -6.80315" fill="none" stroke="black"/>
<text xml:space="preserve" x="47.377" y="313.038" fill="black" font-size="13.2461" font-family="Helvetica" font-weight="bold">0</text>
<text xml:space="preserve" x="47.377" y="265.532" fill="black" font-size="13.2461" font-family="Helvetica" font-weight="bold">5</text>
<text xml:space="preserve" x="40.4556" y="218.34" fill="black" font-size="13.2461" font-family="Helvetica" font-weight="bold">10</text>
<text xml:space="preserve" x="40.4556" y="170.834" fill="black" font-size="13.2461" font-family="Helvetica" font-weight="bold">15</text>
<text xml:space="preserve" x="40.4556" y="123.328" fill="black" font-size="13.2461" font-family="Helvetica" font-weight="bold">20</text>
<text xml:space="preserve" x="40.4556" y="76.1359" fill="black" font-size="13.2461" font-family="Helvetica" font-weight="bold">25</text>
<g transform="rotate(-90,23.152,79.282)">
<text xml:space="preserve" x="23.152" y="79.282" fill="black" font-size="13.2461" font-family="Helvetica" font-weight="bold">&gt; [GeV]</text>
</g>
<g transform="rotate(-90,26.2981,84.3158)">
<text xml:space="preserve" x="26.2981" y="84.3158" fill="black" font-size="8.99738" font-family="Helvetica" font-weight="bold">p</text>
</g>
<g transform="rotate(-90,23.152,92.181)">
<text xml:space="preserve" x="23.152" y="92.181" fill="black" font-size="13.2461" font-family="Times">&#0963;</text>
</g>
<g transform="rotate(-90,23.152,99.1025)">
<text xml:space="preserve" x="23.152" y="99.1025" fill="black" font-size="13.2461" font-family="Helvetica" font-weight="bold">&lt;</text>
</g>
<path d="M57.1929,287.326l 25.332, -3.1741" fill="none" stroke="#0000ff"/>
<path d="M82.5249,284.152l 19.5923, -3.04499l 60.8591, -12.0121l 80.4514, -27.4248l 121.718, -68.3824l 80.4514, -22.3981l 60.8591, -9.62115" fill="none" stroke="#0000ff"/>
<g stroke="black" stroke-width="1" fill="none">
<line x1="81.2665" y1="284.152" x2="83.7834" y2="284.152"/><line x1="82.5249" y1="282.894" x2="82.5249" y2="285.411"/><line x1="81.6352" y1="283.262" x2="83.4147" y2="285.042"/><line x1="81.6352" y1="285.042" x2="83.4147" y2="283.262"/>
<line x1="100.859" y1="281.107" x2="103.376" y2="281.107"/><line x1="102.117" y1="279.849" x2="102.117" y2="282.366"/><line x1="101.227" y1="280.217" x2="103.007" y2="281.997"/><line x1="101.227" y1="281.997" x2="103.007" y2="280.217"/>
<line x1="161.718" y1="269.095" x2="164.235" y2="269.095"/><line x1="162.976" y1="267.837" x2="162.976" y2="270.354"/><line x1="162.087" y1="268.205" x2="163.866" y2="269.985"/><line x1="162.087" y1="269.985" x2="163.866" y2="268.205"/>
<line x1="242.169" y1="241.67" x2="244.686" y2="241.67"/><line x1="243.428" y1="240.412" x2="243.428" y2="242.929"/><line x1="242.538" y1="240.781" x2="244.317" y2="242.56"/><line x1="242.538" y1="242.56" x2="244.317" y2="240.781"/>
<line x1="363.888" y1="173.288" x2="366.404" y2="173.288"/><line x1="365.146" y1="172.029" x2="365.146" y2="174.546"/><line x1="364.256" y1="172.398" x2="366.036" y2="174.178"/><line x1="364.256" y1="174.178" x2="366.036" y2="172.398"/>
<line x1="444.339" y1="150.89" x2="446.856" y2="150.89"/><line x1="445.597" y1="149.631" x2="445.597" y2="152.148"/><line x1="444.708" y1="150" x2="446.487" y2="151.779"/><line x1="444.708" y1="151.779" x2="446.487" y2="150"/>
<line x1="505.198" y1="141.269" x2="507.715" y2="141.269"/><line x1="506.457" y1="140.01" x2="506.457" y2="142.527"/><line x1="505.567" y1="140.379" x2="507.346" y2="142.158"/><line x1="505.567" y1="142.158" x2="507.346" y2="140.379"/>
</g>
<path d="M57.1929,285.273l 25.332, -3.86639" fill="none" stroke="#ff0000"/>
<path d="M82.5249,281.407l 19.5923, -3.63918l 60.8591, -15.7895l 80.4514, -45.5339l 121.718, -88.0796l 80.4514, 14.0685l 60.8591, -95.0698" fill="none" stroke="#ff0000"/>
<g stroke="black" stroke-width="1" fill="none">
<line x1="81.2665" y1="281.407" x2="83.7834" y2="281.407"/><line x1="82.5249" y1="280.148" x2="82.5249" y2="282.665"/><line x1="81.6352" y1="280.517" x2="83.4147" y2="282.296"/><line x1="81.6352" y1="282.296" x2="83.4147" y2="280.517"/>
<line x1="100.859" y1="277.768" x2="103.376" y2="277.768"/><line x1="102.117" y1="276.509" x2="102.117" y2="279.026"/><line x1="101.227" y1="276.878" x2="103.007" y2="278.657"/><line x1="101.227" y1="278.657" x2="103.007" y2="276.878"/>
<line x1="161.718" y1="261.978" x2="164.235" y2="261.978"/><line x1="162.976" y1="260.72" x2="162.976" y2="263.236"/><line x1="162.087" y1="261.088" x2="163.866" y2="262.868"/><line x1="162.087" y1="262.868" x2="163.866" y2="261.088"/>
<line x1="242.169" y1="216.444" x2="244.686" y2="216.444"/><line x1="243.428" y1="215.186" x2="243.428" y2="217.703"/><line x1="242.538" y1="215.554" x2="244.317" y2="217.334"/><line x1="242.538" y1="217.334" x2="244.317" y2="215.554"/>
<line x1="363.888" y1="128.365" x2="366.404" y2="128.365"/><line x1="365.146" y1="127.106" x2="365.146" y2="129.623"/><line x1="364.256" y1="127.475" x2="366.036" y2="129.254"/><line x1="364.256" y1="129.254" x2="366.036" y2="127.475"/>
<line x1="444.339" y1="142.433" x2="446.856" y2="142.433"/><line x1="445.597" y1="141.175" x2="445.597" y2="143.691"/><line x1="444.708" y1="141.543" x2="446.487" y2="143.323"/><line x1="444.708" y1="143.323" x2="446.487" y2="141.543"/>
<line x1="505.198" y1="47.3633" x2="507.715" y2="47.3633"/><line x1="506.457" y1="46.1048" x2="506.457" y2="48.6217"/><line x1="505.567" y1="46.4735" x2="507.346" y2="48.253"/><line x1="505.567" y1="48.253" x2="507.346" y2="46.4735"/>
</g>
<text xml:space="preserve" x="124.142" y="16.3598" fill="black" font-size="14.52" font-family="Helvetica">&gt; values for varying material thickness (P3D = 20GeV)</text>
<text xml:space="preserve" x="119.108" y="20.1351" fill="black" font-size="9.84663" font-family="Helvetica">p</text>
<text xml:space="preserve" x="110.614" y="16.3598" fill="black" font-size="14.52" font-family="Times">&#0963;</text>
<text xml:space="preserve" x="102.749" y="16.3598" fill="black" font-size="14.52" font-family="Helvetica">&lt;</text>
<rect x="98.6587" y="34.2926" width="185.306" height="56.3154" fill="white"/>
<path d="M98.6587,90.608h 185.306" fill="none" stroke="black"/>
<path d="M283.965,90.608v -56.3154" fill="none" stroke="black"/>
<path d="M283.965,34.2926h -185.306" fill="none" stroke="black"/>
<path d="M98.6587,34.2926v 56.3154" fill="none" stroke="black"/>
<text xml:space="preserve" x="144.906" y="54.4277" fill="black" font-size="15.9067" font-family="Helvetica">Unconstrained</text>
<path d="M105.608,58.2266h 32.4285v -19.7104h -32.4285z" fill="white"/>
<path d="M105.608,48.3714h 32.4285" fill="none" stroke="#0000ff"/>
<g stroke="black" stroke-width="1" fill="none">
<line x1="120.563" y1="48.3714" x2="123.08" y2="48.3714"/><line x1="121.822" y1="47.113" x2="121.822" y2="49.6299"/><line x1="120.932" y1="47.4817" x2="122.712" y2="49.2612"/><line x1="120.932" y1="49.2612" x2="122.712" y2="47.4817"/>
</g>
<text xml:space="preserve" x="144.906" y="82.7427" fill="black" font-size="15.9067" font-family="Helvetica">Constrained</text>
<path d="M105.608,86.3843h 32.4285v -19.7104h -32.4285z" fill="white"/>
<path d="M105.608,76.5291h 32.4285" fill="none" stroke="#ff0000"/>
<g stroke="black" stroke-width="1" fill="none">
<line x1="120.563" y1="76.5291" x2="123.08" y2="76.5291"/><line x1="121.822" y1="75.2707" x2="121.822" y2="77.7876"/><line x1="120.932" y1="75.6394" x2="122.712" y2="77.4189"/><line x1="120.932" y1="77.4189" x2="122.712" y2="75.6394"/>
</g></svg>
